<?xml version="1.0" encoding="utf-8"?>
<!-- Generator: Adobe Illustrator 27.5.0, SVG Export Plug-In . SVG Version: 6.00 Build 0)  -->
<svg version="1.1" id="Layer_1" xmlns="http://www.w3.org/2000/svg" xmlns:xlink="http://www.w3.org/1999/xlink" x="0px" y="0px"
	 viewBox="0 0 4000 4000" style="enable-background:new 0 0 4000 4000;" xml:space="preserve">
<g>
	<g>
		<rect x="0.238" style="fill:#67E9FF;" width="4000" height="4000"/>
	</g>
	<g>
		<g>
			<g>
				<path style="fill:#FFAD40;" d="M2724.388,2837.656c91.197,74.098,219.195,75.873,295.441,11.4
					c14.238,225.809-198.948,286.327-330.658,147.246L2724.388,2837.656z"/>
			</g>
			<g>
				<path style="fill:#EF8137;" d="M2820.891,2886.888c-29.055,67.193-14.836,138.908,33.948,179.073c0,0-57.853,4.005-60.153,0
					c-2.3-4.004-57.261-29.553-57.261-29.553l-25.705-38.774l37.263-100.328l12.917-34.294L2820.891,2886.888z"/>
			</g>
			<g>
				<path style="fill:#4C2518;" d="M2848.365,3092.566c-61.609,0-125.112-28.398-175.11-81.191
					c-5.007-5.288-7.061-12.715-5.483-19.824l35.217-158.647c1.648-7.417,7.017-13.452,14.192-15.952
					c7.178-2.49,15.134-1.099,21.03,3.691c80.43,65.352,197.915,70.479,267.466,11.675c6.328-5.352,15.129-6.665,22.749-3.428
					c7.62,3.252,12.759,10.518,13.279,18.789c6.851,108.633-36.855,194.302-116.917,229.15
					C2900.455,3087.425,2874.576,3092.566,2848.365,3092.566z M2713.162,2989.378c57.52,55.415,132.637,74.028,194.128,47.256
					c53.674-23.364,85.596-75.664,90.605-146.313c-76.702,41.25-177.856,35.547-259.29-15.571L2713.162,2989.378z"/>
			</g>
			<g>
				<path style="fill:#FFAD40;" d="M1472.77,2575.822c-17.395,75.759-32.138,164.356-38.498,263.704
					c-4.707,73.524-4.078,141.329-0.469,202.185c-174.293,132.684-13.003,198.312,166.674,163.019
					c46.092-9.053,86.47-34.919,112.666-72.411c71.62-102.505,110.778-260.538,134.319-445.285
					C1722.564,2649.963,1597.667,2612.892,1472.77,2575.822z"/>
			</g>
			<g>
				<path style="fill:#EF8137;" d="M1395.702,3072.247c-14.708,19.892-1.682,49.556,20.04,62.164
					c21.722,12.608,48.595,12.892,74.007,12.806c21.762-0.073,43.523-0.146,65.285-0.219c58.26-0.196,119.799-1.232,169.664-30.197
					c-17.921,42.206-60.889,71.114-106.542,83.775c-45.653,12.66-94.145,11.221-141.502,7.726
					c-12.131-0.895-24.346-1.935-36.019-5.21c-19.244-5.4-36.105-16.611-51.756-28.616c-12.219-9.372-24.566-20.296-28.247-34.883
					c-6.066-24.042,14.125-47.512,36.934-59.132"/>
			</g>
			<g>
				<path style="fill:#4C2518;" d="M1505.875,3236.101c-74.37,0-141.841-18.433-162.878-65.249
					c-12.903-28.716-10.95-75.889,68.525-139.551c-2.185-69.014-1.685-138.828,1.492-207.7
					c5.005-108.364,16.777-217.676,34.993-324.897c2.026-11.934,13.357-19.973,25.281-17.937
					c11.934,2.026,19.966,13.345,17.937,25.281c-17.915,105.469-29.497,212.988-34.417,319.575
					c-3.293,71.406-3.665,143.843-1.099,215.303c0.256,7.114-2.961,13.916-8.628,18.228c-49.556,37.725-73.518,72.764-64.097,93.73
					c14.402,32.051,103.533,51.885,213.269,30.337c27.512-5.405,52.993-17.695,73.684-35.537c0.012-0.01,0.022-0.02,0.032-0.029
					c0.583-0.508,14.382-12.549,25.264-27.974c22.727-32.212,72.004-179.995,130.859-437.529
					c2.698-11.797,14.443-19.189,26.252-16.484c11.802,2.695,19.182,14.448,16.487,26.25
					c-53.743,235.166-106.536,408.76-137.778,453.037c-13.376,18.965-29.258,33.125-32.339,35.801
					c-0.029,0.024-0.059,0.049-0.088,0.073c-26.453,22.832-58.931,38.535-93.923,45.41
					C1572.671,3232.527,1538.604,3236.101,1505.875,3236.101z"/>
			</g>
			<g>
				<path style="fill:#4C2518;" d="M1425.718,3021.337c63.735-17.667,130.946-0.384,189.577,24.043
					c-30.593-4.885-61.456-7.466-91.321-5.469c-29.786,1.946-58.517,8.923-82.085,22.173
					C1412.041,3076.738,1393.913,3031.191,1425.718,3021.337L1425.718,3021.337z"/>
			</g>
			<g>
				<path style="fill:#4C2518;" d="M1435.121,3107.452c-12.581,22.279-21.664,57.991,2.77,74.202
					c6.139,4.099,13.636,6.571,21.706,8.058c9.764,1.798,16.221,11.171,14.423,20.935c-1.798,9.763-11.171,16.221-20.935,14.423
					c-13.468-4.432-25.935-14.388-34.941-25.816C1394.96,3169.867,1411.199,3130.114,1435.121,3107.452L1435.121,3107.452z"/>
			</g>
			<g>
				<path style="fill:#4C2518;" d="M1523.113,3105.688c-12.581,22.278-21.664,57.991,2.77,74.202
					c6.139,4.098,13.636,6.571,21.706,8.058c9.764,1.798,16.221,11.171,14.423,20.934c-1.798,9.764-11.171,16.222-20.935,14.424
					c-13.468-4.433-25.935-14.388-34.941-25.816C1482.951,3168.103,1499.191,3128.35,1523.113,3105.688L1523.113,3105.688z"/>
			</g>
			<g>
				<path style="fill:#FFAD40;" d="M1458.051,2184.358c-74.524,477.654,160.409,960.09,916.524,972.182l272.488-96.078
					c159.191-147.537,135.576-396.259-16.529-559.096c-36.303-38.864-80.03-70.589-127.509-96.093
					c-149.159-80.121-251.875-173.298-295.541-283.074L1458.051,2184.358z"/>
			</g>
			<g>
				<path style="fill:#D9E7F4;" d="M1442.81,2301.85c48.049,16.981,100.675,16.255,151.905,15.316
					c98.201-1.801,196.79-3.633,293.781-18.615s193.012-43.679,275.161-95.422c-231.034-6.746-462.069-13.492-693.103-20.239
					c-17.692,39.237-35.723,82.417-23.569,123.498"/>
			</g>
			<g>
				<path style="fill:#EF8137;" d="M1861.73,2709.268c-97.427,80.655-210.535,89.906-349.695-19.448l127.615,195.839
					c0,0,129.669,102.066,127.657,108.519c-2.012,6.452,90.858,51.202,90.858,51.202l11.343-206.295L1861.73,2709.268z"/>
			</g>
			<g>
				<path style="fill:#EF8137;" d="M2267.226,2760.315c18.296,11.773,43.154,7.987,63.346-0.546
					c20.192-8.533,38.505-21.304,59.693-27.201c-37.563,51.514-76.715,107.815-75.089,170.597
					c0.459,17.742,4.236,35.249,8.778,52.448c9.674,36.633,22.895,72.398,39.437,106.687c1.082,2.243,2.198,4.556,2.291,7.027
					c0.145,3.845-2.184,7.334-4.462,10.507c-20.967,29.201-45.385,56.126-72.636,80.092c-39.423-3.595-78.508-10.525-116.653-20.683
					c39.325-85.762,66.453-176.639,80.397-269.327"/>
			</g>
			<g>
				<path style="fill:#D9E7F4;" d="M2370.011,3067.932c-13.296-13.214-22.593-30.158-26.267-48.116
					c7.816,16.802,17.487,32.365,29.004,46.13C2371.82,3066.608,2370.893,3067.271,2370.011,3067.932z"/>
			</g>
			<g>
				<path style="fill:#D9E7F4;" d="M2651.189,3163.316c-5.716,16.471-13.871,31.876-25.556,45.42
					c-36.065,41.681-96.485,54.698-152.668,60.118c-42.239,4.067-86.961,4.834-124.595-13.86
					c-12.892-6.396-24.499-15.738-33.633-26.803c31.301,31.143,94.015,45.427,168.562,28.992
					C2585.649,3235.898,2631.507,3202.393,2651.189,3163.316z"/>
			</g>
			<g>
				<path style="fill:#EF8137;" d="M2756.25,2779.109c0.976,37.503,0.114,74.958-6.131,111.919
					c-9.283,55.183-31.652,109.898-72.682,149.661c-3.515,3.376-7.165,6.712-9.228,11.047c-2.063,4.334-2.323,9.234-2.496,13.96
					c-0.244,5.715-0.531,11.474-0.863,17.276c-1.435-44.75-9.928-90.861,7.491-131.181l-50.587-66.133
					c0.739-1.088,1.569-2.135,2.399-3.182c10.531-13.005,25.582-21.764,38.44-32.669c29.152-24.627,46.763-59.798,55.98-95.961
					c0.248-1.035,0.541-2.072,0.743-3.106c7.633,21.055,14.035,45.57,19.085,74.062l17.132-45.68l-18.154-94.646l-7.958-12.763
					c0.525-9.541,0.871-19.122,1.261-28.661c19.596,21.374,21.96,52.195,23.337,80.675
					C2754.927,2742.17,2755.834,2760.613,2756.25,2779.109z"/>
			</g>
			<g>
				<path style="fill:#EF8137;" d="M2755.533,2779.124l-17.132,45.68c-5.05-28.492-11.452-53.007-19.085-74.062
					c6.288-25.886,8.711-52.467,10.104-79.028l7.958,12.763L2755.533,2779.124z"/>
			</g>
			<g>
				<path style="fill:#4C2518;" d="M2374.573,3178.46c-0.117,0-0.234,0-0.352,0c-178.538-2.856-336.384-32.012-469.155-86.655
					c-123.362-50.771-225.571-123.599-303.796-216.465c-148.65-176.479-207.205-423.074-164.878-694.36
					c1.56-9.998,9.761-17.629,19.846-18.467l749.434-62.158c9.639-0.767,18.613,4.783,22.18,13.745
					c39.768,99.983,135.84,191.453,285.547,271.863c52.378,28.137,97.178,61.931,133.152,100.442
					c87.605,93.784,135.398,215.596,131.125,334.209c-3.625,100.63-43.64,189.126-115.715,255.928
					c-2.197,2.031-4.788,3.599-7.61,4.595l-272.488,96.079C2379.52,3178.04,2377.056,3178.46,2374.573,3178.46z M1477.183,2204.766
					c-35.359,251.814,20.347,479.363,157.617,642.327c153.384,182.1,407.905,281.46,736.204,287.466l264.417-93.232
					c61.287-58.34,95.303-135.103,98.445-222.29c3.855-107.046-39.646-217.378-119.351-302.705
					c-32.703-35.01-73.704-65.879-121.863-91.748c-153.975-82.705-252.043-174.189-299.167-279.226L1477.183,2204.766z"/>
			</g>
			<g>
				<path style="fill:#EF8137;" d="M2664.849,3082.972c-1.647,27.295-4.807,55.093-13.66,80.344
					c-19.682,39.077-65.54,72.582-167.89,93.867c-74.547,16.435-137.26,2.151-168.562-28.992
					c-17.533-21.286-25.879-48.896-15.992-73.953c39.756,44.11,108.121,56.564,167.613,44.209
					c21.362-4.464,42.662-12.018,58.721-26.293c16.015-14.274,25.831-36.238,20.631-56.57c-1.216-4.826-3.373-9.635-7.244-12.864
					c-4.646-3.899-11.029-5.103-17.134-5.796c-38.96-4.414-80.004,5.596-116.848-7.188c-13.169-4.587-24.875-12.209-34.472-21.806
					c0.882-0.662,1.809-1.324,2.737-1.987c-11.516-13.765-21.188-29.328-29.004-46.13c-1.986-9.706-2.366-19.702-0.771-29.522
					l-0.93-10.629c22.888,18.088,48.16,34.411,76.96,41.347c37.126,9.001,77.677,1.19,110.432-18.013
					c32.755-19.16,57.906-49.031,74.076-82.413c5.719-11.792,10.485-24.253,18.243-34.927l50.587,66.133
					C2654.922,2992.111,2663.415,3038.222,2664.849,3082.972z"/>
			</g>
			<g>
				<path style="fill:#FFAD40;" d="M2545.709,3115.585c5.2,20.332-4.615,42.296-20.631,56.57
					c-16.059,14.275-37.359,21.828-58.721,26.293c-59.492,12.355-127.857-0.099-167.613-44.209
					c-9.887,25.056-1.541,52.667,15.992,73.953c-37.423-37.202-30.052-98.443,55.274-160.259
					c9.597,9.596,21.303,17.218,34.472,21.806c36.844,12.785,77.888,2.775,116.848,7.188c6.105,0.693,12.488,1.896,17.134,5.796
					C2542.336,3105.95,2544.493,3110.759,2545.709,3115.585z"/>
			</g>
			<g>
				<path style="fill:#FFAD40;" d="M2471.924,2689.799l149.83,195.86c-7.758,10.674-12.523,23.135-18.243,34.927
					c-16.169,33.382-41.32,63.253-74.076,82.413c-32.754,19.204-73.305,27.014-110.432,18.013
					c-28.8-6.936-54.072-23.259-76.96-41.347l0.93,10.629c-1.595,9.82-1.215,19.816,0.771,29.522
					C2291.141,2906.756,2324.224,2738.612,2471.924,2689.799z"/>
			</g>
			<g>
				<path style="fill:#FFFFFF;" d="M2664.849,3082.972c0.873,27.889-0.997,55.274-13.66,80.344
					C2660.042,3138.065,2663.202,3110.268,2664.849,3082.972z"/>
			</g>
			<g>
				<path style="fill:#FFAD40;" d="M1860.553,2687.461c8.483,148.096,7.695,287.854-8.475,413.785
					c-174.293,132.684-13.003,198.312,166.674,163.019c46.092-9.053,86.47-34.918,112.666-72.411
					c71.62-102.505,110.777-260.539,134.319-445.285L1860.553,2687.461z"/>
			</g>
			<g>
				<path style="fill:#EF8137;" d="M2270.97,2769.989c-28.142,23.75-65.539,61.908-90.417,117.68
					c-9.899,22.191-5.802,16.957-25.958,78.064c-16.631,50.42-38.076,99.386-63.979,146.086
					c-9.074,16.359-18.764,32.539-31.147,46.767c-16.859,19.372-38.599,34.814-62.833,44.634
					c-19.048,7.718-39.511,11.967-60.109,13.622c-26.466,2.127-53.976-0.179-77.726-11.529
					c-23.75-11.35-43.188-32.821-46.745-58.045c-18.776,14.183-36.777,33.901-35.102,56.739
					c1.741,23.738,24.186,41.183,46.881,50.79c44.876,18.995,95.678,19.051,144.76,18.426c19.38-0.246,39.121-0.605,57.506-6.516
					c17.228-5.539,32.384-15.673,47.197-25.771c48.5-33.065,78.109-56.544,100.491-94.958
					c16.638-28.556,21.516-53.716,24.321-67.718C2212.098,3008.435,2236.643,2906.138,2270.97,2769.989z"/>
			</g>
			<g>
				<path style="fill:#4C2518;" d="M1860.553,2687.461c20.903,102.572,24.802,207.541,21.9,311.959
					c-1.387,34.906-4.065,69.844-8.633,104.617c-0.788,6.003-3.919,11.124-8.352,14.564c-25.351,20.94-60.705,49.12-65.421,81.928
					c-0.76,30.407,46.312,41.381,72.199,46.364c42.993,7.179,89.585,4.751,133.771-2.49c32.365-4.745,63.624-18.435,87.776-40.661
					c28.726-27.245,47.101-63.247,64.618-98.502c35.64-74.41,56.463-155.903,74.698-236.386
					c9.757-40.68,19.551-81.528,32.628-122.285c3.45,64.073-3.851,127.534-16.997,190.02
					c-17.733,83.908-41.642,167.889-85.489,242.676c-29.734,55.076-79.455,94.677-141.48,106.608
					c-70.969,13.367-157.645,19.763-224.489-16.509c-42.258-23.663-54.581-69.297-30.056-111.087
					c17.415-30.79,44.658-54.079,71.575-74.47c0,0-8.463,14.648-8.463,14.648c8.383-67.731,14.406-135.814,18.307-204.102
					C1852.795,2825.38,1854.032,2756.574,1860.553,2687.461L1860.553,2687.461z"/>
			</g>
			<g>
				<path style="fill:#4C2518;" d="M1843.993,3080.873c63.734-17.669,130.946-0.383,189.577,24.043
					c-57.371-9.107-122.774-11.446-173.406,16.704C1830.315,3136.273,1812.189,3090.727,1843.993,3080.873L1843.993,3080.873z"/>
			</g>
			<g>
				<path style="fill:#4C2518;" d="M1853.397,3166.989c-12.582,22.279-21.663,57.991,2.77,74.202
					c6.139,4.098,13.636,6.571,21.706,8.058c9.764,1.798,16.221,11.171,14.423,20.934c-1.798,9.764-11.171,16.221-20.935,14.423
					c-13.468-4.429-25.935-14.389-34.941-25.815C1813.235,3229.401,1829.475,3189.65,1853.397,3166.989L1853.397,3166.989z"/>
			</g>
			<g>
				<path style="fill:#4C2518;" d="M1941.388,3165.225c-12.582,22.279-21.663,57.991,2.77,74.202
					c6.139,4.098,13.636,6.571,21.706,8.058c9.764,1.798,16.221,11.171,14.423,20.934c-1.798,9.763-11.171,16.221-20.934,14.423
					c-13.468-4.429-25.936-14.389-34.941-25.815C1901.227,3227.638,1917.466,3187.886,1941.388,3165.225L1941.388,3165.225z"/>
			</g>
			<g>
				<path style="fill:#4C2518;" d="M2353.162,3153.132c-12.581,22.279-21.664,57.992,2.77,74.202
					c6.139,4.099,13.636,6.571,21.706,8.058c9.764,1.798,16.221,11.171,14.423,20.935c-1.798,9.763-11.171,16.221-20.935,14.423
					c-13.468-4.432-25.935-14.388-34.941-25.816C2313.001,3215.546,2329.24,3175.794,2353.162,3153.132L2353.162,3153.132z"/>
			</g>
			<g>
				<path style="fill:#4C2518;" d="M2453.813,3154.951c-12.581,22.278-21.664,57.991,2.771,74.202
					c6.138,4.098,13.635,6.571,21.705,8.058c9.764,1.798,16.221,11.171,14.423,20.934c-1.798,9.764-11.171,16.222-20.935,14.424
					c-13.468-4.433-25.935-14.388-34.941-25.816C2413.652,3217.365,2429.892,3177.613,2453.813,3154.951L2453.813,3154.951z"/>
			</g>
			<g>
				<path style="fill:#4C2518;" d="M2471.934,2689.821c-49.252,24.702-90.48,64.136-112.199,114.85
					c-35.028,79.526-25.01,180.031,27.88,248.89c7.122,8.42,5.641,21.253-3.198,27.842c-31.715,24.614-71.083,58.398-69.831,100.822
					c2.14,25.401,24.731,42.469,48.534,51.034c42.543,15.562,90.344,10.638,133.902,0.222c30.95-6.959,61.393-16.175,87.875-30.515
					c66.569-35.296,66.399-85.213,63.949-152.95c-0.165-32.907,2.214-71.065,23.478-98.215
					c-7.067,50.633,8.833,96.311,8.415,146.855c3.568,107.798-83.412,151.342-174.353,173.993
					c-68.604,17.923-151.852,22.512-207.432-30.192c-65.515-69.697,0.887-152.387,62.592-192.271
					c-0.001-0.001-3.651,28.169-3.651,28.169C2250.776,2955.598,2299.41,2718.673,2471.934,2689.821L2471.934,2689.821z"/>
			</g>
			<g>
				<path style="fill:#4C2518;" d="M2385.585,3051.47c13.223,16.067,30.746,28.893,51.803,36.256
					c20.999,7.476,44.813,9.386,68.595,7.719c-47.345,18.117-104.12,15.793-146.647-15.404
					C2335.948,3061.948,2365.552,3029.688,2385.585,3051.47L2385.585,3051.47z"/>
			</g>
			<g>
				<path style="fill:#FC3C53;" d="M2215.451,2166.608c-190.743,244.194-503.526,369.929-746.753,333.206
					c-7.839-1.183-14.953-5.632-19.333-12.239c-34.951-52.719-49.283-110.722-36.114-170.007l725.243-218.917L2215.451,2166.608z"/>
			</g>
			<g>
				<path style="fill:#4C2518;" d="M1554.446,2527.971c-30.505,0-60.273-2.144-89.019-6.482
					c-14.041-2.122-26.555-10.068-34.333-21.807c-39.57-59.685-53.14-124.304-39.241-186.868c1.719-7.737,7.478-13.94,15.066-16.23
					l725.242-218.918c7.263-2.197,15.154-0.474,20.842,4.553l76.956,67.959c8.689,7.673,9.902,20.789,2.766,29.924
					c-93.958,120.283-219.224,216.609-362.258,278.567C1765.25,2504.246,1655.879,2527.971,1554.446,2527.971z M1432.334,2334.705
					c-7.173,47.268,4.673,94.561,35.3,140.757c0.92,1.389,2.583,2.415,4.338,2.678c242.839,36.667,533.271-89.871,713.306-308.931
					l-52.141-46.045L1432.334,2334.705z"/>
			</g>
			<g>
				<g>
					<g>
						<path style="fill:#996633;" d="M788.156,2037.245c63.812,40.196,144.486,53.914,228.509,22.96l122.173-247.478
							l198.198-401.484l62.187-444.112c-77.432-35.994-150.647-34.496-219.682,4.552c-42.483,24.011-76.631,59.734-100.079,101.456
							c-123.687,220.457-245.817,429.818-361.561,594.265c-4.741,6.702-9.123,13.598-13.135,20.539
							C634.869,1808.409,668.572,1961.874,788.156,2037.245z"/>
					</g>
					<g>
						<path style="fill:#875325;" d="M788.156,2037.245c63.812,40.196,144.486,53.914,228.509,22.96l122.173-247.478
							c-40.598-59.439-84.833-116.717-119.23-179.747c-5.685-10.388-12.463-21.989-24.42-24.576l-28.637-7.735
							c4.115,66.805-16.005,135.298-56.082,190.911c-14.764,20.545-33.353,40.135-57.778,48.404
							c-41.058,13.926-86.853-9.304-111.007-43.357c-22.416-31.603-30.413-70.451-36.919-108.684
							C634.869,1808.409,668.572,1961.874,788.156,2037.245z"/>
					</g>
					<g>
						<path style="fill:#4C2518;" d="M923.995,2099.07c-51.514,0-101.89-14.561-147.507-43.318
							c-65.125-41.055-109.246-104.924-124.236-179.846c-15.403-76.982,1.553-155.513,47.744-221.121
							c121.545-172.649,250.388-396.321,360.393-592.346c26.113-46.536,63.596-84.517,108.394-109.839
							c75.193-42.503,155.82-44.297,239.653-5.313c8.733,4.06,13.787,13.35,12.451,22.888l-62.188,444.106
							c-0.325,2.314-1.018,4.561-2.051,6.655l-320.352,648.958c-2.483,5.029-6.799,8.914-12.061,10.852
							C991.006,2092.993,957.261,2099.07,923.995,2099.07z M1290.65,963.025c-34.39,0-67.651,9.226-100.322,27.69
							c-37.83,21.384-69.558,53.596-91.755,93.149c-110.547,196.992-240.095,421.865-362.776,596.125
							c-39.211,55.698-53.635,122.227-40.61,187.327c12.612,63.037,49.778,116.804,104.651,151.394
							c60.925,38.406,132.036,46.741,201.152,23.792l314.836-637.783l59.39-424.133
							C1346.143,968.88,1318.04,963.025,1290.65,963.025z"/>
					</g>
				</g>
				<g>
					<path style="fill:#FFAD40;" d="M1016.821,2020.013c-8.929,139.304,46.287,256.731,281.586,312.691
						c85.13,20.24,173.089,25.003,260.451,19.646c260.897-16.223,471.937-83.791,588.173-249.438l8.187-262.535l6.102-192.734
						l22.026-315.369l-22.026-224.286l-116.534-64.89c-85.726-77.689-205.83-132.012-333.973-150.019
						c-248.098-35.57-526.26,64.591-641.752,392.165c-16.52,46.733-29.766,98.079-38.993,154.485
						c-3.423,20.539-6.399,41.672-8.632,63.551c-1.786,15.776-3.125,31.849-4.316,48.22c-0.149,1.637-0.149,3.274-0.298,4.912
						C805.93,1679.789,855.341,2020.311,1016.821,2020.013z"/>
				</g>
				<g style="opacity:0.6;">
					<path style="fill:#FFFFFF;" d="M2161.319,1165.391l-116.534-65.612c-85.726-78.551-205.83-133.478-333.973-151.685
						c-248.098-35.966-526.26,65.309-641.752,396.521c-16.52,47.252-29.766,99.169-38.993,156.201
						c0,0.001-4.565,64.454-8.632,64.256c-1.065-0.052-0.959-7.437-4.614-8.661c-2.751-0.922-6.437,2.047-10.042,6.164
						c-22.178,15.152-71.803,53.416-103.574,122.872c-32.439,70.918-28.183,134.825-24.902,161.443
						c-10.394-103.208,28.727-226.246,138.518-290.479c0.149-1.638,0.149-3.275,0.298-4.912c1.191-16.372,2.53-32.445,4.316-48.22
						c2.233-21.878,5.21-43.012,8.632-63.551c9.227-56.406,22.473-107.752,38.993-154.485
						c115.492-327.574,393.654-427.735,641.752-392.165c128.143,18.008,248.247,72.331,333.973,150.019l116.534,64.89
						l22.026,224.286l-2.434,34.841L2161.319,1165.391z"/>
				</g>
				<g>
					<path style="fill:#EF8137;" d="M1133.116,2190.906c93.723,20.24,190.561,25.003,286.743,19.646
						c287.234-16.223,519.577-83.791,647.547-249.438l9.012-262.535l6.718-192.734l24.25-315.369l-12.946-119.729l66.879,37.241
						l22.026,224.286l-22.026,315.369l-6.102,192.734l-8.187,262.535c-116.236,165.647-327.276,233.215-588.173,249.438
						c-87.363,5.358-175.321,0.595-260.451-19.646c-147.124-34.99-223.843-94.011-258.498-167.385
						C1067.692,2174.867,1098.592,2183.448,1133.116,2190.906z"/>
				</g>
				<g>
					<path style="fill:#FFFFFF;" d="M1959.953,1924.763l195.264-84.387l6.102-192.734l22.026-315.369l-22.026-224.286
						l-116.534-64.89c-85.726-77.689-205.83-132.012-333.973-150.019C1218.187,1167.072,1483.55,2094.13,1959.953,1924.763z"/>
				</g>
				<g>
					<path style="fill:#4C2518;" d="M1167.288,2185.511c79.921,41.97,226.965,1.489,289.175-122.784
						c13.692-27.384,23.366-59.085,27.087-94.804l-61.169-46.733c0,0-132.607-2.828-139.899,0
						c-7.292,2.828-136.923,63.551-136.923,63.551C1089.152,2089.814,1112.519,2156.936,1167.288,2185.511z"/>
				</g>
				<g>
					<path style="fill:#FF8CC3;" d="M1167.288,2185.511c79.921,41.97,226.965,1.489,289.175-122.784
						c-37.654-31.254-108.348-34.23-176.214-3.572C1216.103,2088.177,1173.092,2138.779,1167.288,2185.511z"/>
				</g>
				<g>
					<path style="fill:#4C2518;" d="M1238.621,2223.477c-29.976,0.002-57.949-6.218-81.477-18.564
						c-29.824-15.566-50.605-40.095-60.103-70.942c-13.647-44.338-3.813-98.03,29.229-159.583c2.229-4.153,5.737-7.473,10.002-9.47
						c30.569-14.319,130.879-61.262,138.289-64.138c4.521-1.75,11.353-4.395,148.286-1.477c4.644,0.098,9.133,1.672,12.825,4.49
						l61.169,46.733c6.06,4.631,9.275,12.08,8.484,19.666c-3.821,36.68-13.672,71.106-29.28,102.327
						c-32.808,65.537-91.775,116.052-161.785,138.599C1288.619,2219.373,1262.959,2223.477,1238.621,2223.477z M1161.519,2001.441
						c-24.316,47.476-32.144,88.738-22.629,119.648c6.062,19.695,19.023,34.839,38.525,45.012c0.017,0.007,0.034,0.017,0.051,0.027
						c31.812,16.702,77.927,17.939,123.374,3.311c58.887-18.965,108.474-61.431,136.045-116.511
						c11.538-23.076,19.382-48.342,23.374-75.249l-45.483-34.749c-54.507-1.099-113.188-1.56-126.213-0.535
						C1275.469,1948.208,1207.806,1979.771,1161.519,2001.441z M1287.002,1942.554c-0.002,0,0,0-0.002,0
						C1287,1942.554,1287,1942.554,1287.002,1942.554z"/>
				</g>
				<g>
					<g>
						<g>
							
								<ellipse transform="matrix(0.0972 -0.9953 0.9953 0.0972 36.7489 3091.3203)" style="fill:#4C2518;" cx="1722.329" cy="1525.404" rx="182.431" ry="156.088"/>
						</g>
					</g>
					<g>
						<g>
							
								<ellipse transform="matrix(0.0972 -0.9953 0.9953 0.0972 37.7967 3014.0081)" style="fill:#FFFFFF;" cx="1680.237" cy="1486.17" rx="75.916" ry="59.252"/>
						</g>
					</g>
					<g style="opacity:0.2;">
						<g>
							
								<ellipse transform="matrix(0.0972 -0.9953 0.9953 0.0972 19.8252 3206.9124)" style="fill:#FFFFFF;" cx="1777.578" cy="1592.528" rx="50.436" ry="35.487"/>
						</g>
					</g>
				</g>
				<g>
					<g>
						<g>
							<path style="fill:#4C2518;" d="M1017.119,1551.498c11.013,13.99,24.706,23.366,40.63,26.194
								c50.751,9.227,104.181-50.602,119.212-133.5c15.181-82.898-13.841-157.759-64.74-166.986
								c-14.437-2.679-29.171,0.297-43.161,8.036c-16.52,46.733-29.766,98.079-38.993,154.485
								c-3.423,20.539-6.399,41.672-8.632,63.551C1019.648,1519.054,1018.31,1535.127,1017.119,1551.498z"/>
						</g>
					</g>
					<g>
						<g>
							
								<ellipse transform="matrix(0.1787 -0.9839 0.9839 0.1787 -463.4081 2252.0474)" style="fill:#FFFFFF;" cx="1117.184" cy="1403.587" rx="63.526" ry="35.497"/>
						</g>
					</g>
					<g style="opacity:0.2;">
						<g>
							<path style="fill:#FFFFFF;" d="M1021.434,1503.278c2.531,5.358,6.102,8.929,10.567,9.673
								c11.609,2.084,24.259-14.734,28.427-37.653c4.167-22.92-1.787-43.31-13.246-45.393c-5.805-1.042-12.055,2.828-17.116,9.822
								C1026.644,1460.266,1023.667,1481.4,1021.434,1503.278z"/>
						</g>
					</g>
				</g>
				<g>
					<path style="fill:#FFAD40;" d="M1016.814,2020.029c44.481-2.81,82.5-21.681,115.898-52.039
						c91.197,139.437,397.259,88.138,385.689-113.256l-108.297-39.959c0,0-142.496-31.962-157.696-33.051
						c-15.2-1.088-189.703,25.511-189.703,25.511s-49.077,70.298-54.134,75.998c-5.057,5.7-37.356,67.41-37.356,67.41
						L1016.814,2020.029z"/>
				</g>
				<g>
					<path style="fill:#4C2518;" d="M1494.314,2376.25c-71.348,0-138.711-7.444-200.972-22.249
						c-206.201-49.041-301.841-149.116-299.231-314.048c-59.143-10.41-107.19-61.831-128.301-139.436
						c-31.96-117.49,2.917-275.72,129.939-356.88c1.255-16.633,2.493-30.12,3.931-42.82c2.105-20.637,4.988-41.875,8.792-64.69
						c9.126-55.786,22.571-109.028,39.946-158.184c124.202-352.273,425.198-440.986,665.5-406.538
						c131.86,18.53,253.826,73.11,343.687,153.77l114.365,63.684c6.272,3.491,10.435,9.839,11.135,16.987l22.026,224.287
						c0.12,1.218,0.137,2.444,0.051,3.665l-21.997,314.951l-14.272,454.841c-0.134,4.268-1.511,8.401-3.962,11.895
						c-109.167,155.571-306.978,240.198-604.734,258.713C1537.906,2375.567,1515.926,2376.25,1494.314,2376.25z M1016.822,1998.12
						c6.043,0,11.816,2.498,15.955,6.899c4.148,4.414,6.282,10.349,5.894,16.394c-6.675,104.106,17.393,231.15,264.802,289.99
						c76.926,18.293,162.405,24.712,254.045,19.094c280.112-17.419,465.967-94.277,567.839-234.897l14.08-448.652
						c0.01-0.276,0.024-0.554,0.044-0.833l21.897-313.533l-20.725-211.047l-106.519-59.312c-1.455-0.813-2.815-1.787-4.05-2.905
						c-82.39-74.665-199.871-127.356-322.319-144.563c-223.154-32-502.656,50.449-618.057,377.766
						c-16.521,46.733-29.316,97.444-38.035,150.74c-3.66,21.956-6.423,42.295-8.459,62.241c-1.56,13.796-2.866,28.398-4.258,47.581
						c-0.078,0.889-0.093,1.377-0.115,1.865c-0.051,1.15-0.112,2.297-0.217,3.445c-0.64,7.041-4.644,13.34-10.747,16.912
						c-116.194,67.979-148.225,209.275-119.814,313.718c18.586,68.325,59.163,109.097,108.555,109.097
						C1016.688,1998.12,1016.763,1998.118,1016.822,1998.12z"/>
				</g>
				<g>
					<g>
						<path style="fill:#996633;" d="M2044.854,1043.058c33.319,277.917-130.641,625.174-84.834,881.773
							c22.861,128.059,126.433,225.008,255.431,241.778c107.474,13.972,202.657-6.302,277.707-50.667
							c138.301-81.756,194.176-254.342,134.019-403.312c-106.651-264.107-157.503-529.688-361.533-562.703
							C2192.115,1063.648,2118.521,1026.969,2044.854,1043.058z"/>
					</g>
					<g style="opacity:0.4;">
						<g>
							<path style="fill:#FFFFFF;" d="M2296.227,1212.616c-22.502-25.215-67.75-68.818-138.577-95.013
								c-42.706-15.795-81.106-20.23-108.745-21.068c-0.633-18.075-1.945-35.916-4.05-53.477
								c73.666-16.089,147.261,20.59,220.79,106.868c204.03,33.015,254.882,298.596,361.532,562.703
								c6.015,14.895,10.817,30.031,14.546,45.283c-19.672-57.906-76.605-220.706-149.471-361.158
								c-18.706-36.056-44.451-82.185-94.489-124.366C2360.172,1240.7,2322.605,1222.816,2296.227,1212.616z"/>
						</g>
					</g>
					<g>
						<path style="fill:#875325;" d="M2230.961,2020.628c101.797,13.241,191.953-5.981,263.04-48.039
							c50.267-29.74,88.986-72.185,114.464-121.151c-5.22,92.619-54.596,180.265-138.465,229.886
							c-65.983,39.038-149.664,56.88-244.152,44.59c-113.41-14.752-204.464-100.052-224.559-212.728
							c-5.597-31.387-7.621-64.32-7.052-98.412C2023.58,1924.481,2116.737,2005.771,2230.961,2020.628z"/>
					</g>
					<g>
						<path style="fill:#4C2518;" d="M2281.722,2192.871c-22.632,0-45.691-1.509-69.092-4.553
							c-139.497-18.135-249.675-122.476-274.163-259.641c-24.136-135.203,8.401-295.815,39.866-451.14
							c29.822-147.217,60.659-299.446,44.785-431.875c-1.343-11.199,6.045-21.587,17.065-23.994
							c79.319-17.317,158.999,19.026,236.938,108.057c171.658,32.915,237.703,214.873,313.987,425.061
							c17.734,48.862,36.072,99.39,56.367,149.646c64.253,159.109,2.7,344.121-143.179,430.354
							C2439.339,2173.186,2363.392,2192.871,2281.722,2192.871z M2068.758,1061.677c11.365,133.901-18.54,281.543-47.512,424.551
							c-32.061,158.271-62.344,307.764-39.673,434.753c21.113,118.271,116.235,208.257,236.702,223.918
							c98.074,12.742,189.272-3.782,263.743-47.805c127.395-75.31,181.072-237.068,124.858-376.267
							c-20.586-50.984-39.06-101.882-56.924-151.106c-72.749-200.442-135.576-373.552-287.805-398.186
							c-5.129-0.83-9.797-3.457-13.167-7.412C2187.493,1091.973,2127.005,1057.669,2068.758,1061.677z"/>
					</g>
					<g>
						<path style="fill:#4C2518;" d="M2283.755,1137.627c22.914,40.33,36.985,84.673,46.252,129.349
							c9.682,43.309,13.417,87.394,31.878,128.055c-21.727-25.807-34.176-58.457-46.689-89.432
							c-11.31-28.904-24.243-61.91-37.798-89.042c-9.049-20.016-20.963-38.633-31.724-57.701
							C2232.582,1133.375,2268.884,1113.031,2283.755,1137.627L2283.755,1137.627z"/>
					</g>
				</g>
				<g>
					<path style="fill:#4C2518;" d="M1518.401,1854.734c27.085,71.184-19.26,143.222-80.838,178.603
						c-100.019,59.321-256.556,52.15-323.174-53.361c0-0.001,33.049,4.215,33.049,4.215c-17.295,15.713-36.984,29.666-58.979,39.85
						c-21.93,10.245-46.1,16.353-70.265,17.838c-12.081,0.766-22.498-8.422-23.238-20.507c-0.742-12.068,8.41-22.45,20.478-23.192
						c18.956-1.191,37.396-5.842,54.623-13.87c17.247-7.986,33.278-19.208,47.928-32.521c9.81-9.071,25.792-6.94,33.05,4.218
						c69.26,91.597,235.485,84.375,312.688,6.071C1492.449,1932.061,1507.491,1896.152,1518.401,1854.734L1518.401,1854.734z"/>
				</g>
				<g>
					<path style="fill:#4C2518;" d="M1112.831,1977.157c-31.635-66.432-19.046-143.376-11.501-212.495
						c2.173-17.487,18.108-29.901,35.594-27.73c18.635,2.2,31.446,20.525,27.168,38.778c-7.351,32.331-14.269,64.136-17.779,95.381
						c-3.183,29.681-3.91,61.051,6.541,88.419C1161.987,1985.522,1125.868,2001.342,1112.831,1977.157L1112.831,1977.157z"/>
				</g>
				<g>
					<g>
						<path style="fill:#4C2518;" d="M1008.731,1688.355c-3.309,46.528,45.635,91.322,83.746,118.881
							c26.388,19.081,61.382,21.57,90.205,6.416c41.628-21.887,96.419-59.303,99.729-105.831
							C1287.785,1632.246,1014.106,1612.781,1008.731,1688.355z"/>
					</g>
					<g style="opacity:0.35;">
						<path style="fill:#FFFFFF;" d="M1062.724,1674.213c-0.759,10.679,22.379,21.807,40.277,28.783
							c12.392,4.83,28.456,5.973,41.408,2.945c18.705-4.373,43.186-12.114,43.945-22.793
							C1189.587,1665.803,1063.958,1656.867,1062.724,1674.213z"/>
					</g>
				</g>
				<g>
					<path style="fill:#EF8137;" d="M1507.951,1862.808c-2.604,8.27-36.515,109.679-142.971,141.071
						c-87.126,25.692-158.976-14.347-189.337-35.888c-10.454-7.417-17.795-18.424-20.109-31.032
						c-0.558-3.043-1.049-6.23-1.447-9.554c-1.13-9.438-1.265-17.94-0.95-25.174c16.361,15.016,68.996,59.414,147.671,63.356
						C1425.019,1971.812,1501.507,1871.556,1507.951,1862.808z"/>
				</g>
				<g>
					<path style="fill:#EF8137;" d="M1094.427,1949.052c1.564,6.191-0.939,12.668-6.223,16.254
						c-17.209,11.681-55.326,32.441-94.691,19.266c-20.575-6.886-33.193-20.266-42.247-30.091
						c-37.399-40.588-42.174-92.082-42.748-114.947c3.486,44.925,34.609,82.481,76.502,93.169
						c36.665,9.354,76.184-3.249,102.093-32.371c0.453,8.971,1.446,19.031,3.325,29.924
						C1091.591,1936.942,1092.952,1943.217,1094.427,1949.052z"/>
				</g>
			</g>
			<g style="opacity:0.6;">
				<path style="fill:#FFFFFF;" d="M2004.751,3052.157c-20.913-79.126-94.861-110.069-112.14-4.644
					c-1.461,8.914,5.716,17.296,14.725,16.65c26.356-1.889,53.388,0.243,81.009,5.867
					C1998.719,3072.142,2007.456,3062.391,2004.751,3052.157z"/>
			</g>
			<g style="opacity:0.6;">
				<path style="fill:#FFFFFF;" d="M1580.465,2991.358c-20.914-79.125-94.862-110.069-112.14-4.644
					c-1.461,8.914,5.716,17.296,14.725,16.65c26.356-1.889,53.388,0.243,81.009,5.867
					C1574.433,3011.344,1583.17,3001.593,1580.465,2991.358z"/>
			</g>
		</g>
		<g>
			<g>
				<g>
					<path style="fill:#FFFFFF;" d="M2740.43,1460.425c-5.176,0-10.295-2.004-14.15-5.857c-6.426-6.428-7.71-16.379-3.127-24.226
						l39.783-68.137c7.798-13.359,6.157-29.954-4.08-41.296c-40.676-45.061-63.335-103.291-63.806-163.967
						c-1.052-135.117,107.939-247.161,242.959-249.763c1.636-0.032,3.25-0.049,4.878-0.049c66.943,0,129.68,26.282,176.648,73.999
						c46.958,47.708,72.236,110.874,71.174,177.864c-2.131,134.446-113.318,243.835-247.834,243.835
						c-0.01,0-2.141-0.007-2.141-0.007c-21.04-0.181-41.953-3.02-62.163-8.445c-2.778-0.747-5.657-1.125-8.547-1.125
						c-5.977,0-11.892,1.611-17.109,4.656l-102.407,59.79C2747.364,1459.531,2743.885,1460.425,2740.43,1460.425z"/>
				</g>
				<g>
					<g>
						<path style="fill:#4C2518;" d="M2942.886,927.129c127.063,0,229.844,104.018,227.825,231.545
							c-1.963,123.838-104.219,224.153-227.844,224.153c-0.652,0-1.309-0.002-1.963-0.007c-19.753-0.168-38.901-2.864-57.148-7.761
							c-4.519-1.214-9.136-1.809-13.733-1.809c-9.473,0-18.872,2.527-27.192,7.385l-102.407,59.79l39.783-68.137
							c12.097-20.723,9.575-46.968-6.504-64.78c-36.074-39.963-58.203-92.747-58.652-150.72
							c-0.967-124.131,99.233-227.222,223.345-229.614C2939.9,927.144,2941.387,927.129,2942.886,927.129 M2942.886,887.129
							c-1.758,0-3.499,0.017-5.264,0.051c-145.92,2.813-263.708,123.899-262.573,269.919c0.51,65.574,25,128.511,68.96,177.209
							c4.377,4.849,5.042,12.007,1.653,17.813l-39.783,68.135c-9.165,15.696-6.594,35.601,6.26,48.452
							c7.705,7.708,17.947,11.716,28.296,11.716c6.912,0,13.87-1.787,20.156-5.457l102.407-59.79
							c2.161-1.262,4.587-1.929,7.024-1.929c1.143,0,2.275,0.149,3.367,0.442c21.841,5.862,44.441,8.933,67.173,9.126l2.305,0.01
							c145.386,0,265.537-118.213,267.839-263.518c1.147-72.393-26.169-140.654-76.917-192.209
							C3083.03,915.53,3015.232,887.129,2942.886,887.129L2942.886,887.129z"/>
					</g>
				</g>
			</g>
			<g style="opacity:0.3;">
				<path style="fill:#4C2518;" d="M3170.449,1144.374c-0.115-2.501-0.267-4.992-0.462-7.472c-0.1-1.271-0.202-2.541-0.323-3.805
					c-0.239-2.51-0.533-5.004-0.853-7.49c-0.139-1.076-0.251-2.16-0.405-3.232c-0.473-3.304-1.023-6.582-1.636-9.839
					c-0.268-1.419-0.583-2.82-0.877-4.229c-0.402-1.929-0.815-3.854-1.265-5.766c-0.398-1.686-0.819-3.364-1.255-5.035
					c-0.406-1.559-0.836-3.109-1.273-4.656c-0.515-1.815-1.025-3.633-1.583-5.43c-0.334-1.078-0.707-2.14-1.056-3.211
					c-1.369-4.182-2.844-8.316-4.445-12.388c-0.227-0.579-0.44-1.164-0.672-1.741c-0.908-2.256-1.865-4.488-2.843-6.707
					c-0.295-0.672-0.592-1.342-0.894-2.01c-1.048-2.317-2.12-4.619-3.242-6.894c-0.087-0.177-0.179-0.351-0.267-0.528
					c-5.122-10.318-10.995-20.198-17.558-29.56c11.179,27.525,17.166,57.713,16.665,89.366
					c-1.685,106.369-77.387,195.324-177.046,218.322c-105.663,23.399-167.161,3.637-204.581-33.268
					c-0.187-0.214-27.445-50.493-32.823-58.157c0.001,0.004,0.003,0.008,0.005,0.012c0.852,2.095,1.749,4.166,2.662,6.229
					c-0.017-0.02-0.031-0.037-0.048-0.057c9.865,22.333,23.187,42.797,39.329,60.68c16.08,17.813,18.602,44.058,6.503,64.781
					l-39.781,68.136l102.406-59.789c12.363-7.218,27.099-9.289,40.926-5.577c18.247,4.898,37.395,7.592,57.148,7.762
					c3.581,0.031,7.139-0.044,10.682-0.18c3.292-0.126,6.561-0.352,9.818-0.619c0.49-0.04,0.986-0.057,1.475-0.1
					c2.988-0.264,5.951-0.622,8.906-1.003c0.746-0.096,1.5-0.164,2.245-0.267c2.778-0.386,5.53-0.859,8.277-1.345
					c0.904-0.16,1.816-0.292,2.716-0.463c2.617-0.496,5.207-1.073,7.793-1.659c1.008-0.228,2.024-0.431,3.026-0.673
					c2.485-0.599,4.942-1.272,7.396-1.953c1.078-0.299,2.165-0.576,3.237-0.891c2.371-0.696,4.714-1.459,7.054-2.23
					c1.125-0.371,2.258-0.723,3.376-1.111c2.266-0.787,4.505-1.634,6.739-2.49c1.16-0.445,2.328-0.874,3.479-1.337
					c2.167-0.871,4.306-1.798,6.441-2.733c1.185-0.519,2.375-1.028,3.55-1.567c2.069-0.949,4.111-1.948,6.147-2.957
					c1.204-0.597,2.411-1.186,3.603-1.804c1.977-1.024,3.928-2.092,5.872-3.171c1.208-0.671,2.418-1.339,3.614-2.031
					c1.889-1.094,3.753-2.227,5.608-3.374c1.209-0.748,2.418-1.495,3.613-2.265c1.798-1.158,3.572-2.35,5.335-3.556
					c1.207-0.826,2.41-1.655,3.6-2.503c1.709-1.218,3.396-2.465,5.071-3.729c1.194-0.901,2.383-1.809,3.559-2.733
					c1.622-1.274,3.224-2.573,4.811-3.89c1.18-0.979,2.352-1.968,3.512-2.97c1.533-1.325,3.048-2.669,4.546-4.033
					c1.158-1.054,2.303-2.121,3.439-3.199c1.449-1.375,2.882-2.766,4.295-4.177c1.129-1.128,2.243-2.272,3.349-3.424
					c1.361-1.418,2.709-2.848,4.034-4.3c1.099-1.204,2.178-2.426,3.251-3.653c1.276-1.46,2.542-2.929,3.781-4.421
					c1.06-1.276,2.098-2.571,3.13-3.871c1.188-1.495,2.37-2.997,3.521-4.522c1.021-1.353,2.015-2.727,3.007-4.102
					c1.101-1.527,2.198-3.058,3.263-4.614c0.975-1.424,1.918-2.871,2.861-4.319c1.013-1.555,2.026-3.11,3.002-4.691
					c0.926-1.499,1.815-3.023,2.707-4.544c0.926-1.58,1.855-3.158,2.744-4.762c0.87-1.571,1.699-3.167,2.533-4.76
					c0.837-1.599,1.681-3.194,2.482-4.814c0.811-1.643,1.575-3.313,2.348-4.978c0.75-1.617,1.512-3.229,2.225-4.866
					c0.745-1.711,1.438-3.45,2.142-5.182c0.663-1.632,1.342-3.256,1.968-4.907c0.676-1.781,1.292-3.588,1.924-5.389
					c0.576-1.643,1.172-3.277,1.711-4.936c0.601-1.852,1.139-3.733,1.693-5.605c0.487-1.645,0.999-3.279,1.45-4.939
					c0.526-1.938,0.981-3.904,1.456-5.861c0.395-1.629,0.821-3.245,1.181-4.887c0.448-2.042,0.817-4.112,1.209-6.174
					c0.302-1.59,0.641-3.167,0.909-4.769c0.365-2.179,0.646-4.385,0.948-6.585c0.208-1.515,0.458-3.016,0.636-4.54
					c0.288-2.468,0.482-4.963,0.689-7.453c0.107-1.278,0.26-2.543,0.346-3.827c0.251-3.788,0.412-7.6,0.473-11.436
					c0.058-3.651,0.003-7.276-0.109-10.886C3170.566,1146.647,3170.501,1145.512,3170.449,1144.374z"/>
			</g>
			<g style="opacity:0.5;">
				<g>
					<path style="fill:#FFFFFF;" d="M2727.301,1173.125c-0.966-124.131,99.235-227.223,223.347-229.614
						c72.592-1.398,137.629,31.161,180.302,82.863c-41.836-61.059-112.598-100.741-192.555-99.2
						c-124.112,2.391-224.313,105.483-223.347,229.614c0.422,54.187,19.789,103.836,51.775,142.723
						C2742.208,1263.459,2727.666,1219.991,2727.301,1173.125z"/>
				</g>
			</g>
			<g>
				<path style="fill:#F9195A;" d="M2851.335,1080.562L2851.335,1080.562c24.241-24.241,63.542-19.897,87.783,4.343l3.773,3.773
					l3.773-3.773c24.24-24.241,63.542-28.584,87.783-4.344v0c24.24,24.24,24.24,63.542,0,87.783l-3.773,3.773l-76.212,76.212
					c-6.391,6.391-16.752,6.391-23.142,0l-76.212-76.212l-3.773-3.773C2827.094,1144.104,2827.094,1104.802,2851.335,1080.562z"/>
			</g>
			<g style="opacity:0.5;">
				<path style="fill:#FCE5E5;" d="M2855.615,1111.769c7.809-10.753,22.964-11.26,27.542-7.935s-3.153,9.224-10.961,19.976
					s-12.739,22.287-17.317,18.962S2847.806,1122.521,2855.615,1111.769z"/>
			</g>
			<g style="opacity:0.5;">
				<g>
					<path style="fill:#FCE5E5;" d="M2904.11,1089.605c0.416,3.183-1.772,6.112-4.655,7.261c-2.901,1.1-6.494,0.419-8.337-2.209
						c-1.842-2.602-0.199-6.904,4.137-8.592C2899.593,1084.38,2903.71,1086.442,2904.11,1089.605z"/>
				</g>
			</g>
		</g>
	</g>
</g>
</svg>
